<svg width="21" height="20" viewBox="0 0 21 20" fill="none" xmlns="http://www.w3.org/2000/svg">
<path d="M18.0983 2.49984V4.16651C18.0983 5.7136 17.4838 7.19733 16.3898 8.2913C15.2958 9.38526 13.8121 9.99984 12.265 9.99984H11.4317V10.8332H15.5983V16.6665C15.5983 17.1085 15.4228 17.5325 15.1102 17.845C14.7976 18.1576 14.3737 18.3332 13.9317 18.3332H7.26501C6.82299 18.3332 6.39906 18.1576 6.0865 17.845C5.77394 17.5325 5.59835 17.1085 5.59835 16.6665V10.8332H9.76501V8.33317C9.76501 6.78608 10.3796 5.30235 11.4736 4.20838C12.5675 3.11442 14.0513 2.49984 15.5983 2.49984H18.0983ZM5.18168 1.66651C6.18166 1.6657 7.1672 1.90516 8.05531 2.36473C8.94343 2.82431 9.70812 3.49054 10.285 4.30734C9.40498 5.46475 8.9295 6.87919 8.93168 8.33317V9.16651H8.51501C6.85741 9.16651 5.2677 8.50803 4.0956 7.33592C2.92349 6.16382 2.26501 4.57411 2.26501 2.91651V1.66651H5.18168Z" fill="#7893B0" style="fill:#7893B0;fill:color(display-p3 0.4706 0.5765 0.6902);fill-opacity:1;"/>
</svg>
