<svg width="24" height="25" viewBox="0 0 24 25" fill="none" xmlns="http://www.w3.org/2000/svg">
<path d="M12 21.3629C16.9706 21.3629 21 17.3335 21 12.3629C21 7.39235 16.9706 3.36292 12 3.36292C7.02944 3.36292 3 7.39235 3 12.3629C3 17.3335 7.02944 21.3629 12 21.3629Z" stroke="#7893B0" style="stroke:#7893B0;stroke:color(display-p3 0.4706 0.5765 0.6902);stroke-opacity:1;" stroke-width="1.6" stroke-linecap="round" stroke-linejoin="round"/>
<path d="M3.51562 9.36292H20.4844" stroke="#7893B0" style="stroke:#7893B0;stroke:color(display-p3 0.4706 0.5765 0.6902);stroke-opacity:1;" stroke-width="1.6" stroke-linecap="round" stroke-linejoin="round"/>
<path d="M3.51562 15.3629H20.4844" stroke="#7893B0" style="stroke:#7893B0;stroke:color(display-p3 0.4706 0.5765 0.6902);stroke-opacity:1;" stroke-width="1.6" stroke-linecap="round" stroke-linejoin="round"/>
<path d="M12 21.1197C14.0711 21.1197 15.75 17.1994 15.75 12.3634C15.75 7.52748 14.0711 3.60718 12 3.60718C9.92893 3.60718 8.25 7.52748 8.25 12.3634C8.25 17.1994 9.92893 21.1197 12 21.1197Z" stroke="#7893B0" style="stroke:#7893B0;stroke:color(display-p3 0.4706 0.5765 0.6902);stroke-opacity:1;" stroke-width="1.6" stroke-linecap="round" stroke-linejoin="round"/>
</svg>
