<svg width="20" height="21" viewBox="0 0 20 21" fill="none" xmlns="http://www.w3.org/2000/svg">
<path d="M13.3333 1.83691H6.66664C3.59886 1.83691 1.11108 4.32469 1.11108 7.39247V14.0591C1.11108 17.1269 3.59886 19.6147 6.66664 19.6147H13.3333C16.4011 19.6147 18.8889 17.1269 18.8889 14.0591V7.39247C18.8889 4.32469 16.4011 1.83691 13.3333 1.83691ZM17.2222 14.0591C17.2222 16.2036 15.4777 17.948 13.3333 17.948H6.66664C4.52219 17.948 2.77775 16.2036 2.77775 14.0591V7.39247C2.77775 5.24802 4.52219 3.50358 6.66664 3.50358H13.3333C15.4777 3.50358 17.2222 5.24802 17.2222 7.39247V14.0591Z" fill="#3BA9DC" style="fill:#3BA9DC;fill:color(display-p3 0.2329 0.6643 0.8624);fill-opacity:1;"/>
<path d="M9.99986 6.28125C7.54542 6.28125 5.55542 8.27125 5.55542 10.7257C5.55542 13.1801 7.54542 15.1701 9.99986 15.1701C12.4543 15.1701 14.4443 13.1801 14.4443 10.7257C14.4443 8.27125 12.4543 6.28125 9.99986 6.28125ZM9.99986 13.5035C8.46875 13.5035 7.22209 12.2568 7.22209 10.7257C7.22209 9.19347 8.46875 7.94792 9.99986 7.94792C11.531 7.94792 12.7776 9.19347 12.7776 10.7257C12.7776 12.2568 11.531 13.5035 9.99986 13.5035Z" fill="#3BA9DC" style="fill:#3BA9DC;fill:color(display-p3 0.2329 0.6643 0.8624);fill-opacity:1;"/>
<path d="M14.9999 6.28103C15.3067 6.28103 15.5554 6.0323 15.5554 5.72548C15.5554 5.41865 15.3067 5.16992 14.9999 5.16992C14.6931 5.16992 14.4443 5.41865 14.4443 5.72548C14.4443 6.0323 14.6931 6.28103 14.9999 6.28103Z" fill="#3BA9DC" style="fill:#3BA9DC;fill:color(display-p3 0.2329 0.6643 0.8624);fill-opacity:1;"/>
</svg>
