<svg width="24" height="25" viewBox="0 0 24 25" fill="none" xmlns="http://www.w3.org/2000/svg">
<path d="M12 13.1129C13.6569 13.1129 15 11.7698 15 10.1129C15 8.45606 13.6569 7.11292 12 7.11292C10.3431 7.11292 9 8.45606 9 10.1129C9 11.7698 10.3431 13.1129 12 13.1129Z" stroke="#7893B0" style="stroke:#7893B0;stroke:color(display-p3 0.4706 0.5765 0.6902);stroke-opacity:1;" stroke-width="1.6" stroke-linecap="round" stroke-linejoin="round"/>
<path d="M19.5 10.1129C19.5 16.8629 12 22.1129 12 22.1129C12 22.1129 4.5 16.8629 4.5 10.1129C4.5 8.12379 5.29018 6.21614 6.6967 4.80961C8.10322 3.40309 10.0109 2.61292 12 2.61292C13.9891 2.61292 15.8968 3.40309 17.3033 4.80961C18.7098 6.21614 19.5 8.12379 19.5 10.1129V10.1129Z" stroke="#7893B0" style="stroke:#7893B0;stroke:color(display-p3 0.4706 0.5765 0.6902);stroke-opacity:1;" stroke-width="1.6" stroke-linecap="round" stroke-linejoin="round"/>
</svg>
