<svg width="16" height="15" viewBox="0 0 16 15" fill="none" xmlns="http://www.w3.org/2000/svg">
<g clip-path="url(#clip0_669_6771)">
<path d="M12.7647 3.03702C11.7098 1.42958 9.96838 0.525391 8.00931 0.525391C6.06699 0.525391 4.32559 1.42958 3.23722 3.03702C2.14885 4.61097 1.89769 6.62027 2.56745 8.37841C2.75164 8.84725 3.03629 9.33283 3.40466 9.76818L7.64094 14.7579C7.74141 14.8584 7.84187 14.9254 7.99257 14.9254C8.14327 14.9254 8.24373 14.8584 8.3442 14.7579L12.5972 9.76818C12.9656 9.33283 13.267 8.86399 13.4344 8.37841C14.1042 6.62027 13.853 4.61097 12.7647 3.03702ZM8.00931 8.96446C6.56931 8.96446 5.38048 7.77562 5.38048 6.33562C5.38048 4.89562 6.56931 3.70679 8.00931 3.70679C9.44931 3.70679 10.6381 4.89562 10.6381 6.33562C10.6381 7.77562 9.46606 8.96446 8.00931 8.96446Z" fill="white" style="fill:white;fill-opacity:1;"/>
</g>
<defs>
<clipPath id="clip0_669_6771">
<rect width="14.4" height="14.4" fill="white" style="fill:white;fill-opacity:1;" transform="translate(0.800781 0.525391)"/>
</clipPath>
</defs>
</svg>
