<svg width="50" height="50" viewBox="0 0 50 50" fill="none" xmlns="http://www.w3.org/2000/svg">
<circle cx="25" cy="25" r="25" fill="#3BA9DC" style="fill:#3BA9DC;fill:color(display-p3 0.2329 0.6643 0.8624);fill-opacity:1;"/>
<path d="M24.8711 16.8557C25.1084 16.6187 25.4301 16.4856 25.7655 16.4856C26.1009 16.4856 26.4226 16.6187 26.6599 16.8557L33.8318 24.0276C34.0688 24.2649 34.2019 24.5866 34.2019 24.922C34.2019 25.2574 34.0688 25.5791 33.8318 25.8164L26.6599 32.9882C26.4198 33.2117 26.1025 33.3333 25.7746 33.3277C25.4467 33.322 25.1337 33.1895 24.9015 32.9579C24.6699 32.7257 24.5374 32.4127 24.5317 32.0848C24.526 31.7569 24.6477 31.4396 24.8711 31.1995L29.883 26.1876L17.328 26.1876C16.9924 26.1876 16.6704 26.0543 16.4331 25.8169C16.1957 25.5796 16.0624 25.2576 16.0624 24.922C16.0624 24.5863 16.1957 24.2644 16.4331 24.0271C16.6704 23.7897 16.9924 23.6564 17.328 23.6564L29.883 23.6564L24.8711 18.6445C24.6341 18.4072 24.501 18.0855 24.501 17.7501C24.501 17.4147 24.6341 17.093 24.8711 16.8557Z" fill="white" style="fill:white;fill-opacity:1;"/>
</svg>
