<svg width="20" height="21" viewBox="0 0 20 21" fill="none" xmlns="http://www.w3.org/2000/svg">
<g clip-path="url(#clip0_669_6735)">
<path d="M9.99971 11.5488C12.9884 11.5488 15.4113 9.12593 15.4113 6.13716C15.4113 3.1484 12.9885 0.725586 9.99971 0.725586C7.01095 0.725586 4.58813 3.14844 4.58813 6.1372C4.5918 9.12441 7.01251 11.5451 9.99971 11.5488ZM9.99971 3.22325C11.609 3.22325 12.9137 4.52785 12.9137 6.1372C12.9137 7.74656 11.6091 9.05116 9.99971 9.05116C8.39036 9.05116 7.08576 7.74656 7.08576 6.1372C7.08576 4.52785 8.3904 3.22325 9.99971 3.22325Z" fill="#3BA9DC" style="fill:#3BA9DC;fill:color(display-p3 0.2329 0.6643 0.8624);fill-opacity:1;"/>
<path d="M15.3008 14.1128C15.8889 13.7254 16.2432 13.0687 16.2441 12.3645C16.2522 11.78 15.9224 11.2433 15.3973 10.9866C14.8578 10.7171 14.212 10.7778 13.7322 11.1431C11.5084 12.7644 8.4922 12.7644 6.26838 11.1431C5.78782 10.7797 5.14315 10.7191 4.60326 10.9866C4.0784 11.2433 3.74844 11.7794 3.75573 12.3636C3.75698 13.0677 4.11122 13.7243 4.69903 14.112C5.45317 14.6135 6.27443 15.0059 7.13843 15.2775C7.28497 15.3231 7.4362 15.3652 7.59218 15.4041L5.07622 17.8643C4.41621 18.5047 4.40025 19.5588 5.04063 20.2189C5.681 20.8789 6.73513 20.8948 7.39518 20.2545C7.40892 20.2411 7.42242 20.2276 7.43569 20.2138L9.99997 17.5596L12.5692 20.2187C13.2091 20.8793 14.2632 20.896 14.9238 20.2562C15.5843 19.6164 15.6011 18.5622 14.9612 17.9017C14.9478 17.8879 14.9342 17.8743 14.9204 17.861L12.4085 15.4033C12.5645 15.3633 12.7163 15.3208 12.8639 15.2759C13.727 15.0053 14.5475 14.6137 15.3008 14.1128Z" fill="#3BA9DC" style="fill:#3BA9DC;fill:color(display-p3 0.2329 0.6643 0.8624);fill-opacity:1;"/>
</g>
<defs>
<clipPath id="clip0_669_6735">
<rect width="20" height="20" fill="white" style="fill:white;fill-opacity:1;" transform="translate(0 0.725586)"/>
</clipPath>
</defs>
</svg>
