<svg width="50" height="50" viewBox="0 0 50 50" fill="none" xmlns="http://www.w3.org/2000/svg">
<circle cx="25" cy="25" r="25" transform="rotate(180 25 25)" fill="#3BA9DC" style="fill:#3BA9DC;fill:color(display-p3 0.2329 0.6643 0.8624);fill-opacity:1;"/>
<path d="M25.1289 33.1443C24.8916 33.3813 24.5699 33.5144 24.2345 33.5144C23.8991 33.5144 23.5774 33.3813 23.3401 33.1443L16.1682 25.9724C15.9312 25.7351 15.7981 25.4134 15.7981 25.078C15.7981 24.7426 15.9312 24.4209 16.1682 24.1836L23.3401 17.0118C23.5802 16.7883 23.8975 16.6667 24.2254 16.6723C24.5533 16.678 24.8663 16.8105 25.0985 17.0421C25.3301 17.2743 25.4626 17.5873 25.4683 17.9152C25.474 18.2431 25.3523 18.5604 25.1289 18.8005L20.117 23.8124L32.672 23.8124C33.0076 23.8124 33.3296 23.9457 33.5669 24.1831C33.8043 24.4204 33.9376 24.7424 33.9376 25.078C33.9376 25.4137 33.8043 25.7356 33.5669 25.9729C33.3296 26.2103 33.0076 26.3436 32.672 26.3436L20.117 26.3436L25.1289 31.3555C25.3659 31.5928 25.499 31.9145 25.499 32.2499C25.499 32.5853 25.3659 32.907 25.1289 33.1443Z" fill="white" style="fill:white;fill-opacity:1;"/>
</svg>
