<svg width="22" height="22" viewBox="0 0 22 22" fill="none" xmlns="http://www.w3.org/2000/svg">
<path fill-rule="evenodd" clip-rule="evenodd" d="M10.0009 2.02578C7.95876 2.02578 6.00024 2.83703 4.55621 4.28106C3.11218 5.72509 2.30093 7.68361 2.30093 9.72578C2.30093 11.7679 3.11218 13.7265 4.55621 15.1705C6.00024 16.6145 7.95876 17.4258 10.0009 17.4258C12.0351 17.4258 13.9863 16.6209 15.4286 15.1875C15.4355 15.1801 15.4425 15.1728 15.4497 15.1656C15.4563 15.159 15.463 15.1525 15.4698 15.1462C16.8987 13.7046 17.7009 11.7565 17.7009 9.72578C17.7009 7.68361 16.8897 5.72509 15.4457 4.28106C14.0016 2.83703 12.0431 2.02578 10.0009 2.02578ZM17.1216 15.708C18.5237 14.0392 19.3009 11.9225 19.3009 9.72578C19.3009 7.25927 18.3211 4.89378 16.577 3.14969C14.8329 1.4056 12.4674 0.425781 10.0009 0.425781C7.53441 0.425781 5.16892 1.4056 3.42483 3.14969C1.68075 4.89378 0.700928 7.25927 0.700928 9.72578C0.700928 12.1923 1.68075 14.5578 3.42483 16.3019C5.16892 18.046 7.53441 19.0258 10.0009 19.0258C12.201 19.0258 14.3208 18.2462 15.9908 16.84L19.9347 20.791C20.2469 21.1037 20.7534 21.1041 21.0661 20.792C21.3788 20.4798 21.3793 19.9733 21.0671 19.6606L17.1216 15.708Z" fill="#1757A2" style="fill:#1757A2;fill:color(display-p3 0.0902 0.3412 0.6353);fill-opacity:1;"/>
</svg>
