<svg width="20" height="21" viewBox="0 0 20 21" fill="none" xmlns="http://www.w3.org/2000/svg">
<path d="M19.7024 4.83973C19.0066 5.14807 18.2591 5.3564 17.4733 5.45057C18.2841 4.9654 18.8907 4.20179 19.1799 3.30224C18.4181 3.75473 17.5844 4.07323 16.7149 4.2439C16.1302 3.61962 15.3558 3.20584 14.5119 3.0668C13.6679 2.92775 12.8017 3.07123 12.0476 3.47495C11.2936 3.87866 10.6939 4.52004 10.3417 5.29949C9.98954 6.07894 9.90454 6.95286 10.0999 7.78557C8.55633 7.70806 7.04629 7.30686 5.66778 6.60799C4.28928 5.90912 3.07313 4.9282 2.09826 3.7289C1.76493 4.3039 1.57326 4.97057 1.57326 5.68057C1.57289 6.31973 1.73029 6.9491 2.03149 7.51285C2.3327 8.07659 2.7684 8.55727 3.29993 8.91223C2.68349 8.89262 2.08066 8.72605 1.5416 8.4264V8.4764C1.54153 9.37285 1.85162 10.2417 2.41925 10.9356C2.98687 11.6294 3.77707 12.1055 4.65576 12.2831C4.08391 12.4378 3.48438 12.4606 2.90243 12.3497C3.15034 13.1211 3.63326 13.7956 4.28357 14.2788C4.93388 14.7621 5.71903 15.0299 6.5291 15.0447C5.15396 16.1242 3.45567 16.7098 1.70743 16.7072C1.39775 16.7073 1.08833 16.6892 0.780762 16.6531C2.55533 17.794 4.62105 18.3996 6.73076 18.3972C13.8724 18.3972 17.7766 12.4822 17.7766 7.35223C17.7766 7.18557 17.7724 7.01723 17.7649 6.85057C18.5243 6.30138 19.1799 5.62131 19.7008 4.84224L19.7024 4.83973Z" fill="#3BA9DC" style="fill:#3BA9DC;fill:color(display-p3 0.2329 0.6643 0.8624);fill-opacity:1;"/>
</svg>
