<svg width="20" height="21" viewBox="0 0 20 21" fill="none" xmlns="http://www.w3.org/2000/svg">
<path d="M9.80975 15.2708H10.8721C10.8721 15.2708 11.1932 15.2352 11.3565 15.0585C11.5077 14.8963 11.5021 14.5918 11.5021 14.5918C11.5021 14.5918 11.481 13.1662 12.1433 12.9561C12.7955 12.7495 13.6334 14.334 14.5212 14.9441C15.1924 15.4052 15.7024 15.3041 15.7024 15.3041L18.077 15.2708C18.077 15.2708 19.3193 15.1941 18.7304 14.2174C18.6826 14.1373 18.3871 13.4951 16.9647 12.175C15.4757 10.7927 15.6757 11.0171 17.4692 8.62694C18.5615 7.17128 18.9982 6.28232 18.8615 5.90229C18.7315 5.54004 17.9281 5.63561 17.9281 5.63561L15.2568 5.65116C15.2568 5.65116 15.059 5.62449 14.9112 5.71228C14.7679 5.79895 14.6757 5.99897 14.6757 5.99897C14.6757 5.99897 14.2523 7.12572 13.6878 8.08357C12.4977 10.1048 12.021 10.2115 11.8266 10.0859C11.3743 9.79369 11.4877 8.91029 11.4877 8.28358C11.4877 6.32455 11.7843 5.50782 10.9087 5.29669C10.6176 5.22669 10.4042 5.18002 9.66085 5.17224C8.70745 5.16224 7.89961 5.17557 7.44291 5.39892C7.13844 5.54782 6.90398 5.88007 7.04733 5.89896C7.22401 5.92229 7.62404 6.00674 7.83627 6.29566C8.11074 6.66791 8.10074 7.50574 8.10074 7.50574C8.10074 7.50574 8.25853 9.81147 7.73293 10.0982C7.3718 10.2948 6.87731 9.8937 5.81612 8.05912C5.27275 7.12016 4.86161 6.0812 4.86161 6.0812C4.86161 6.0812 4.78271 5.88785 4.64159 5.78451C4.47047 5.65894 4.23045 5.61894 4.23045 5.61894L1.69026 5.6345C1.69026 5.6345 1.30912 5.64561 1.16911 5.81118C1.04466 5.95896 1.15911 6.26343 1.15911 6.26343C1.15911 6.26343 3.14815 10.916 5.39943 13.2617C7.46514 15.4119 9.80975 15.2708 9.80975 15.2708Z" fill="#3BA9DC" style="fill:#3BA9DC;fill:color(display-p3 0.2329 0.6643 0.8624);fill-opacity:1;"/>
</svg>
