<svg width="21" height="20" viewBox="0 0 21 20" fill="none" xmlns="http://www.w3.org/2000/svg">
<path d="M17.0665 5.83333V4.16667C17.0665 3.2475 16.319 2.5 15.3999 2.5H4.56653C3.18819 2.5 2.06653 3.62167 2.06653 5V15C2.06653 16.8342 3.56153 17.5 4.56653 17.5H17.0665C17.9857 17.5 18.7332 16.7525 18.7332 15.8333V7.5C18.7332 6.58083 17.9857 5.83333 17.0665 5.83333ZM15.3999 13.3333H13.7332V10H15.3999V13.3333ZM4.56653 5.83333C4.35196 5.82374 4.14937 5.73174 4.00093 5.57651C3.85248 5.42129 3.76964 5.21478 3.76964 5C3.76964 4.78522 3.85248 4.57871 4.00093 4.42349C4.14937 4.26826 4.35196 4.17626 4.56653 4.16667H15.3999V5.83333H4.56653Z" fill="#7893B0" style="fill:#7893B0;fill:color(display-p3 0.4706 0.5765 0.6902);fill-opacity:1;"/>
</svg>
