<svg width="24" height="25" viewBox="0 0 24 25" fill="none" xmlns="http://www.w3.org/2000/svg">
<g clip-path="url(#clip0_669_6746)">
<path fill-rule="evenodd" clip-rule="evenodd" d="M20.5032 4.21338C18.2471 1.96543 15.2467 0.726904 12.0502 0.725586C5.4635 0.725586 0.102885 6.0604 0.100235 12.6173C0.0993524 14.7134 0.649544 16.7595 1.69532 18.563L0 24.7256L6.33485 23.0718C8.08036 24.0194 10.0455 24.5188 12.0453 24.5193H12.0503C18.6363 24.5193 23.9975 19.1841 24 12.6269C24.0013 9.44902 22.7595 6.46118 20.5032 4.21338ZM17.4982 15.1077C17.1997 14.9589 15.7317 14.2402 15.4579 14.1409C15.1844 14.0417 14.9851 13.9924 14.7863 14.2897C14.5871 14.5871 14.015 15.2565 13.8407 15.4547C13.6665 15.6531 13.4925 15.678 13.1938 15.5292C12.8952 15.3805 11.9332 15.0666 10.7926 14.0542C9.90506 13.2663 9.30586 12.2932 9.13159 11.9958C8.95761 11.6981 9.13011 11.5528 9.26258 11.3894C9.58581 10.9899 9.90948 10.5711 10.009 10.3729C10.1086 10.1746 10.0587 10.001 9.98396 9.85229C9.90948 9.70361 9.31233 8.24097 9.06358 7.6458C8.82102 7.0666 8.57507 7.14482 8.39167 7.13574C8.21769 7.1271 8.01855 7.12534 7.8194 7.12534C7.6204 7.12534 7.29688 7.19961 7.02311 7.49727C6.74948 7.79478 5.97822 8.51357 5.97822 9.97622C5.97822 11.4389 7.04813 12.8519 7.19738 13.0502C7.34663 13.2485 9.30291 16.25 12.2981 17.537C13.0104 17.8435 13.5665 18.0261 14.0003 18.1631C14.7156 18.3893 15.3664 18.3573 15.8809 18.2809C16.4547 18.1955 17.6473 17.5619 17.8964 16.8679C18.1451 16.1737 18.1451 15.5788 18.0704 15.4547C17.9959 15.3308 17.7967 15.2565 17.4982 15.1077Z" fill="#389E0D" style="fill:#389E0D;fill:color(display-p3 0.2196 0.6196 0.0510);fill-opacity:1;"/>
</g>
<defs>
<clipPath id="clip0_669_6746">
<rect width="24" height="24" fill="white" style="fill:white;fill-opacity:1;" transform="translate(0 0.725586)"/>
</clipPath>
</defs>
</svg>
