<svg width="20" height="21" viewBox="0 0 20 21" fill="none" xmlns="http://www.w3.org/2000/svg">
<g clip-path="url(#clip0_669_6743)">
<path d="M19.5834 6.14847C19.4701 5.7445 19.2495 5.37876 18.945 5.09014C18.6319 4.79264 18.2482 4.57984 17.83 4.47181C16.265 4.05931 9.99503 4.05931 9.99503 4.05931C7.38113 4.02957 4.76788 4.16037 2.17003 4.45097C1.75185 4.56699 1.36883 4.78455 1.05503 5.08431C0.746693 5.38097 0.523359 5.74681 0.406693 6.14764C0.126437 7.65743 -0.00973061 9.19043 2.6038e-05 10.726C-0.00997396 12.2601 0.125859 13.7926 0.406693 15.3043C0.520859 15.7035 0.743359 16.0676 1.05253 16.3618C1.36169 16.656 1.74669 16.8685 2.17003 16.981C3.75586 17.3926 9.99503 17.3926 9.99503 17.3926C12.6122 17.4224 15.2288 17.2916 17.83 17.001C18.2482 16.8929 18.6319 16.6801 18.945 16.3826C19.2494 16.0941 19.4697 15.7283 19.5825 15.3243C19.8701 13.8151 20.0099 12.2815 20 10.7451C20.0217 9.20231 19.882 7.66144 19.5834 6.14764V6.14847ZM8.00169 13.5793V7.87347L13.2184 10.7268L8.00169 13.5793Z" fill="#3BA9DC" style="fill:#3BA9DC;fill:color(display-p3 0.2329 0.6643 0.8624);fill-opacity:1;"/>
</g>
<defs>
<clipPath id="clip0_669_6743">
<rect width="20" height="20" fill="white" style="fill:white;fill-opacity:1;" transform="translate(0 0.725586)"/>
</clipPath>
</defs>
</svg>
