<svg width="18" height="16" viewBox="0 0 18 16" fill="none" xmlns="http://www.w3.org/2000/svg">
<path d="M0 1.98792C0 1.68955 0.118526 1.4034 0.329505 1.19242C0.540483 0.981441 0.826631 0.862915 1.125 0.862915H12.375C12.6734 0.862915 12.9595 0.981441 13.1705 1.19242C13.3815 1.4034 13.5 1.68955 13.5 1.98792C13.5 2.28628 13.3815 2.57243 13.1705 2.78341C12.9595 2.99439 12.6734 3.11292 12.375 3.11292H1.125C0.826631 3.11292 0.540483 2.99439 0.329505 2.78341C0.118526 2.57243 0 2.28628 0 1.98792ZM0 13.9879C0 13.6895 0.118526 13.4034 0.329505 13.1924C0.540483 12.9814 0.826631 12.8629 1.125 12.8629H10.875C11.1734 12.8629 11.4595 12.9814 11.6705 13.1924C11.8815 13.4034 12 13.6895 12 13.9879C12 14.2863 11.8815 14.5724 11.6705 14.7834C11.4595 14.9944 11.1734 15.1129 10.875 15.1129H1.125C0.826631 15.1129 0.540483 14.9944 0.329505 14.7834C0.118526 14.5724 0 14.2863 0 13.9879ZM1.125 6.86292C0.826631 6.86292 0.540483 6.98144 0.329505 7.19242C0.118526 7.4034 0 7.68955 0 7.98792C0 8.28628 0.118526 8.57243 0.329505 8.78341C0.540483 8.99439 0.826631 9.11292 1.125 9.11292H16.875C17.1734 9.11292 17.4595 8.99439 17.6705 8.78341C17.8815 8.57243 18 8.28628 18 7.98792C18 7.68955 17.8815 7.4034 17.6705 7.19242C17.4595 6.98144 17.1734 6.86292 16.875 6.86292H1.125Z" fill="#7893B0" style="fill:#7893B0;fill:color(display-p3 0.4706 0.5765 0.6902);fill-opacity:1;"/>
</svg>
